<?xml version="1.0" standalone="no"?>
<!DOCTYPE svg PUBLIC "-//W3C//DTD SVG 20010904//EN"
 "http://www.w3.org/TR/2001/REC-SVG-20010904/DTD/svg10.dtd">
<svg version="1.0" xmlns="http://www.w3.org/2000/svg"
 width="512.000000pt" height="512.000000pt" viewBox="0 0 512.000000 512.000000"
 preserveAspectRatio="xMidYMid meet">

<g transform="translate(0.000000,512.000000) scale(0.100000,-0.100000)"
fill="#3e86f5" stroke="none">
<path d="M1145 4855 l-25 -24 0 -1451 0 -1450 -47 24 c-168 84 -366 51 -505
-86 -100 -97 -147 -235 -127 -374 5 -37 8 -68 7 -69 -2 -1 -27 -15 -55 -30
-62 -33 -151 -123 -182 -183 -66 -129 -66 -285 0 -414 30 -58 119 -150 177
-181 123 -67 228 -72 395 -20 16 5 17 -7 17 -151 0 -153 1 -157 25 -181 32
-33 78 -33 110 0 24 24 25 28 25 180 0 85 3 155 6 155 3 0 26 -6 52 -14 26 -8
59 -17 75 -20 l27 -6 0 -136 c0 -130 1 -136 25 -159 l24 -25 1791 0 1791 0 24
25 25 24 0 616 0 615 55 0 c46 0 60 4 80 25 25 24 25 26 25 215 0 189 0 191
-25 215 l-24 25 -376 0 -375 0 0 1415 0 1416 -25 24 -24 25 -1471 0 -1471 0
-24 -25z m2855 -2295 l0 -2160 -400 0 -400 0 0 455 0 456 -25 24 -24 25 -511
0 -511 0 -24 -25 -25 -24 0 -456 0 -455 -400 0 -400 0 0 88 0 88 56 24 c69 28
170 120 207 188 72 132 74 291 6 424 -31 61 -122 152 -185 185 l-55 28 7 40
c13 72 6 170 -15 231 -21 58 -21 71 -21 1541 l0 1483 1360 0 1360 0 0 -2160z
m-3033 -735 c69 -20 143 -88 173 -157 32 -74 30 -154 -5 -237 -26 -62 -26 -66
-11 -98 10 -21 25 -35 43 -39 80 -18 102 -26 146 -54 142 -90 167 -291 53
-427 -86 -102 -276 -121 -376 -36 -29 24 -30 27 -30 119 0 87 -2 97 -25 119
-32 33 -78 33 -110 0 -23 -22 -25 -32 -25 -119 0 -92 -1 -95 -30 -119 -100
-85 -290 -66 -376 36 -53 63 -69 107 -69 192 0 70 4 87 30 134 46 83 100 120
223 151 34 9 46 18 59 45 16 33 15 36 -11 95 -104 231 99 467 341 395z m3833
-65 l0 -80 -320 0 -320 0 0 80 0 80 320 0 320 0 0 -80z m-160 -800 l0 -560
-240 0 -240 0 0 560 0 560 240 0 240 0 0 -560z m-1600 -160 l0 -400 -400 0
-400 0 0 400 0 400 400 0 400 0 0 -400z"/>
<path d="M1465 4535 l-25 -24 0 -271 0 -271 25 -24 c24 -25 26 -25 215 -25
189 0 191 0 215 25 l25 24 0 271 0 271 -25 24 c-24 25 -26 25 -215 25 -189 0
-191 0 -215 -25z m295 -295 l0 -160 -80 0 -80 0 0 160 0 160 80 0 80 0 0 -160z"/>
<path d="M2105 4535 l-25 -24 0 -271 0 -271 25 -24 c24 -25 26 -25 215 -25
189 0 191 0 215 25 l25 24 0 271 0 271 -25 24 c-24 25 -26 25 -215 25 -189 0
-191 0 -215 -25z m295 -295 l0 -160 -80 0 -80 0 0 160 0 160 80 0 80 0 0 -160z"/>
<path d="M2745 4535 l-25 -24 0 -271 0 -271 25 -24 c24 -25 26 -25 215 -25
189 0 191 0 215 25 l25 24 0 271 0 271 -25 24 c-24 25 -26 25 -215 25 -189 0
-191 0 -215 -25z m295 -295 l0 -160 -80 0 -80 0 0 160 0 160 80 0 80 0 0 -160z"/>
<path d="M3385 4535 l-25 -24 0 -271 0 -271 25 -24 c24 -25 26 -25 215 -25
189 0 191 0 215 25 l25 24 0 271 0 271 -25 24 c-24 25 -26 25 -215 25 -189 0
-191 0 -215 -25z m295 -295 l0 -160 -80 0 -80 0 0 160 0 160 80 0 80 0 0 -160z"/>
<path d="M1465 3735 l-25 -24 0 -271 0 -271 25 -24 c24 -25 26 -25 215 -25
189 0 191 0 215 25 l25 24 0 271 0 271 -25 24 c-24 25 -26 25 -215 25 -189 0
-191 0 -215 -25z m295 -295 l0 -160 -80 0 -80 0 0 160 0 160 80 0 80 0 0 -160z"/>
<path d="M2105 3735 l-25 -24 0 -271 0 -271 25 -24 c24 -25 26 -25 215 -25
189 0 191 0 215 25 l25 24 0 271 0 271 -25 24 c-24 25 -26 25 -215 25 -189 0
-191 0 -215 -25z m295 -295 l0 -160 -80 0 -80 0 0 160 0 160 80 0 80 0 0 -160z"/>
<path d="M2745 3735 l-25 -24 0 -271 0 -271 25 -24 c24 -25 26 -25 215 -25
189 0 191 0 215 25 l25 24 0 271 0 271 -25 24 c-24 25 -26 25 -215 25 -189 0
-191 0 -215 -25z m295 -295 l0 -160 -80 0 -80 0 0 160 0 160 80 0 80 0 0 -160z"/>
<path d="M3385 3735 l-25 -24 0 -271 0 -271 25 -24 c24 -25 26 -25 215 -25
189 0 191 0 215 25 l25 24 0 271 0 271 -25 24 c-24 25 -26 25 -215 25 -189 0
-191 0 -215 -25z m295 -295 l0 -160 -80 0 -80 0 0 160 0 160 80 0 80 0 0 -160z"/>
<path d="M1465 2935 l-25 -24 0 -271 0 -271 25 -24 c24 -25 26 -25 215 -25
189 0 191 0 215 25 l25 24 0 271 0 271 -25 24 c-24 25 -26 25 -215 25 -189 0
-191 0 -215 -25z m295 -295 l0 -160 -80 0 -80 0 0 160 0 160 80 0 80 0 0 -160z"/>
<path d="M2105 2935 l-25 -24 0 -271 0 -271 25 -24 c24 -25 26 -25 215 -25
189 0 191 0 215 25 l25 24 0 271 0 271 -25 24 c-24 25 -26 25 -215 25 -189 0
-191 0 -215 -25z m295 -295 l0 -160 -80 0 -80 0 0 160 0 160 80 0 80 0 0 -160z"/>
<path d="M2745 2935 l-25 -24 0 -271 0 -271 25 -24 c24 -25 26 -25 215 -25
189 0 191 0 215 25 l25 24 0 271 0 271 -25 24 c-24 25 -26 25 -215 25 -189 0
-191 0 -215 -25z m295 -295 l0 -160 -80 0 -80 0 0 160 0 160 80 0 80 0 0 -160z"/>
<path d="M3385 2935 l-25 -24 0 -271 0 -271 25 -24 c24 -25 26 -25 215 -25
189 0 191 0 215 25 l25 24 0 271 0 271 -25 24 c-24 25 -26 25 -215 25 -189 0
-191 0 -215 -25z m295 -295 l0 -160 -80 0 -80 0 0 160 0 160 80 0 80 0 0 -160z"/>
<path d="M1465 2135 l-25 -24 0 -271 0 -271 25 -24 c24 -25 26 -25 215 -25
189 0 191 0 215 25 l25 24 0 271 0 271 -25 24 c-24 25 -26 25 -215 25 -189 0
-191 0 -215 -25z m295 -295 l0 -160 -80 0 -80 0 0 160 0 160 80 0 80 0 0 -160z"/>
<path d="M2105 2135 l-25 -24 0 -271 0 -271 25 -24 c24 -25 26 -25 215 -25
189 0 191 0 215 25 l25 24 0 271 0 271 -25 24 c-24 25 -26 25 -215 25 -189 0
-191 0 -215 -25z m295 -295 l0 -160 -80 0 -80 0 0 160 0 160 80 0 80 0 0 -160z"/>
<path d="M2745 2135 l-25 -24 0 -271 0 -271 25 -24 c24 -25 26 -25 215 -25
189 0 191 0 215 25 l25 24 0 271 0 271 -25 24 c-24 25 -26 25 -215 25 -189 0
-191 0 -215 -25z m295 -295 l0 -160 -80 0 -80 0 0 160 0 160 80 0 80 0 0 -160z"/>
<path d="M3385 2135 l-25 -24 0 -271 0 -271 25 -24 c24 -25 26 -25 215 -25
189 0 191 0 215 25 l25 24 0 271 0 271 -25 24 c-24 25 -26 25 -215 25 -189 0
-191 0 -215 -25z m295 -295 l0 -160 -80 0 -80 0 0 160 0 160 80 0 80 0 0 -160z"/>
</g>
</svg>
