<?xml version="1.0" standalone="no"?>
<!DOCTYPE svg PUBLIC "-//W3C//DTD SVG 20010904//EN"
 "http://www.w3.org/TR/2001/REC-SVG-20010904/DTD/svg10.dtd">
<svg version="1.0" xmlns="http://www.w3.org/2000/svg"
 width="512.000000pt" height="512.000000pt" viewBox="0 0 512.000000 512.000000"
 preserveAspectRatio="xMidYMid meet">

<g transform="translate(0.000000,512.000000) scale(0.100000,-0.100000)"
fill="#3e86f5" stroke="none">
<path d="M2015 5026 c-41 -18 -83 -69 -90 -109 -3 -18 -5 -334 -3 -704 3 -660
3 -672 24 -699 11 -15 33 -37 48 -48 27 -20 41 -21 497 -24 l469 -3 0 -47 c0
-57 -29 -125 -63 -146 -13 -9 -70 -32 -127 -51 -162 -54 -220 -97 -262 -192
l-19 -43 -484 0 -485 0 0 695 0 696 -25 24 -24 25 -511 0 -511 0 -24 -25 -25
-24 0 -696 0 -695 -135 0 c-131 0 -137 -1 -160 -25 l-25 -24 0 -1391 0 -1391
25 -24 c24 -25 26 -25 215 -25 189 0 191 0 215 25 l25 24 0 296 0 295 400 0
400 0 0 -295 0 -296 25 -24 c24 -25 26 -25 215 -25 189 0 191 0 215 25 l25 24
0 1096 0 1095 920 0 920 0 0 -280 0 -279 -567 -3 -568 -3 -67 -32 c-93 -44
-151 -100 -196 -191 -36 -75 -37 -77 -41 -218 -3 -142 -3 -143 22 -168 l26
-26 337 0 337 0 -6 -97 c-9 -152 -62 -296 -149 -410 l-40 -53 -81 0 c-111 0
-152 -15 -212 -75 -71 -70 -91 -145 -63 -239 16 -55 99 -138 154 -154 59 -17
1209 -17 1268 0 55 16 138 99 154 154 26 89 9 163 -55 234 -54 61 -107 80
-219 80 l-82 0 -41 53 c-88 115 -151 298 -151 442 l0 65 256 0 c172 0 270 4
298 12 55 16 138 99 154 154 9 30 12 177 12 538 l0 496 200 0 200 0 0 -1095 0
-1096 25 -24 c24 -25 26 -25 215 -25 189 0 191 0 215 25 l25 24 0 1391 0 1391
-25 24 -24 25 -416 0 -415 0 0 135 c0 133 -1 136 -26 162 -24 24 -30 25 -90
20 -80 -8 -154 -39 -222 -95 -46 -37 -55 -41 -74 -31 -11 6 -66 27 -121 45
-55 19 -111 41 -124 50 -34 21 -63 89 -63 146 l0 47 469 3 c456 3 470 4 497
24 15 11 37 33 48 48 21 27 21 36 21 726 0 690 0 699 -21 726 -11 15 -33 37
-48 48 -27 21 -33 21 -1194 23 -955 2 -1173 0 -1197 -11z m2305 -626 l0 -480
-1120 0 -1120 0 0 480 0 480 1120 0 1120 0 0 -480z m-2960 -320 l0 -160 -400
0 -400 0 0 160 0 160 400 0 400 0 0 -160z m0 -480 l0 -160 -400 0 -400 0 0
160 0 160 400 0 400 0 0 -160z m2960 80 l0 -80 -1120 0 -1120 0 0 80 0 80
1120 0 1120 0 0 -80z m-1038 -312 c6 -88 34 -158 86 -211 50 -52 99 -79 212
-116 113 -37 123 -43 114 -64 -6 -16 -49 -17 -518 -17 l-511 1 27 23 c15 13
71 38 125 56 116 38 165 65 215 117 52 53 80 123 86 211 l5 72 77 0 77 0 5
-72z m-1922 -248 l0 -160 -400 0 -400 0 0 160 0 160 400 0 400 0 0 -160z
m2640 -690 l0 -670 -80 0 -80 0 0 576 c0 424 3 588 12 618 13 45 105 146 132
146 14 0 16 -69 16 -670z m-320 210 l0 -160 -1720 0 -1720 0 0 160 0 160 1720
0 1720 0 0 -160z m1200 0 l0 -160 -360 0 -360 0 0 160 0 160 360 0 360 0 0
-160z m-4480 -1360 l0 -1040 -80 0 -80 0 0 1040 0 1040 80 0 80 0 0 -1040z
m960 720 l0 -320 -400 0 -400 0 0 320 0 320 400 0 400 0 0 -320z m320 -720 l0
-1040 -80 0 -80 0 0 1040 0 1040 80 0 80 0 0 -1040z m3200 0 l0 -1040 -80 0
-80 0 0 1040 0 1040 80 0 80 0 0 -1040z m-880 185 c0 -131 -1 -137 -25 -160
l-24 -25 -776 0 -775 0 0 56 c0 31 5 75 12 98 15 51 99 137 148 153 24 7 256
11 738 12 l702 1 0 -135z m-2640 -265 l0 -320 -400 0 -400 0 0 320 0 320 400
0 400 0 0 -320z m1923 -182 c8 -137 36 -242 95 -360 l49 -98 -227 0 -227 0 49
98 c59 118 87 223 95 360 l6 102 77 0 77 0 6 -102z m532 -643 c16 -15 25 -36
25 -55 0 -19 -9 -40 -25 -55 l-24 -25 -591 0 -591 0 -24 25 c-16 15 -25 36
-25 55 0 19 9 40 25 55 l24 25 591 0 591 0 24 -25z"/>
<path d="M800 2080 l0 -80 160 0 160 0 0 80 0 80 -160 0 -160 0 0 -80z"/>
<path d="M800 1280 l0 -80 160 0 160 0 0 80 0 80 -160 0 -160 0 0 -80z"/>
</g>
</svg>
